<svg xmlns="http://www.w3.org/2000/svg" viewBox="0 0 95 55"><defs><style>.a{fill:#accb34;}.b,.c{fill:#fff;}.c{font-size:8px;font-family:Raleway;letter-spacing:0.3em;}</style></defs><path class="a" d="M88.023,4.753a14.258,14.258,0,0,1,0,28.517H69.011a14.258,14.258,0,1,1,0-28.517H88.023m0-4.753H69.011a19.011,19.011,0,1,0,0,38.023H88.023A19.011,19.011,0,1,0,88.023,0" transform="translate(-30.989)"/><path class="b" d="M12.4,37.662v-.114a6.317,6.317,0,0,0,1.635-1.217,8.951,8.951,0,0,0,1.179-1.711,5.625,5.625,0,0,0,.57-2.662,6.251,6.251,0,0,0-.608-2.738,6.407,6.407,0,0,0-1.711-2.205,7.755,7.755,0,0,0-2.776-1.483A12.75,12.75,0,0,0,6.882,25c-1.065,0-2.053.038-2.89.114s-1.559.152-2.129.228a14.927,14.927,0,0,0-1.749.3L0,25.684V44.011H4.753V38.954h3.5L10.8,44.011h5.057ZM4.753,29.221a.642.642,0,0,0,.19-.076c.076-.038.19-.038.266-.076a5.966,5.966,0,0,1,.608-.114,8.944,8.944,0,0,1,1.065-.038A4.912,4.912,0,0,1,10,29.791a2.754,2.754,0,0,1,1.027,2.167,2.962,2.962,0,0,1-.989,2.281,3.952,3.952,0,0,1-2.738.875H4.753Z" transform="translate(0 -15.494)"/><path class="b" d="M223.637,35.836a4.544,4.544,0,0,0-1.217-1.559,5.452,5.452,0,0,0-1.711-.989,18.677,18.677,0,0,0-1.939-.57c-.646-.152-1.293-.3-1.939-.418a9.317,9.317,0,0,1-1.635-.418,3.26,3.26,0,0,1-1.141-.608,1.051,1.051,0,0,1-.38-.875,1.3,1.3,0,0,1,.532-.951,2.7,2.7,0,0,1,1.711-.456,6.418,6.418,0,0,1,2.015.3,4.592,4.592,0,0,1,1.369.684,4.987,4.987,0,0,1,1.027.951l.114.152,2.89-3-.114-.114a8.627,8.627,0,0,0-1.787-1.483,17.486,17.486,0,0,0-2.205-1.027A9.305,9.305,0,0,0,216.185,25a10.969,10.969,0,0,0-3.08.418,7.162,7.162,0,0,0-2.281,1.179,5.122,5.122,0,0,0-1.483,1.787,5.313,5.313,0,0,0-.494,2.167,5.429,5.429,0,0,0,.456,2.357,5.157,5.157,0,0,0,1.293,1.559,5.452,5.452,0,0,0,1.711.989,14.438,14.438,0,0,0,1.939.57c.646.152,1.293.3,1.939.418a10.643,10.643,0,0,1,1.6.418,3.26,3.26,0,0,1,1.141.608,1.051,1.051,0,0,1,.38.875,1.381,1.381,0,0,1-.684,1.1,3.679,3.679,0,0,1-2.205.532,7.26,7.26,0,0,1-2.4-.342,6.614,6.614,0,0,1-1.559-.76,3.807,3.807,0,0,1-1.1-1.1l-.114-.152L208.2,40.551l.076.114a9.339,9.339,0,0,0,1.939,1.711,12.144,12.144,0,0,0,2.433,1.141,10.5,10.5,0,0,0,3.46.532,11.921,11.921,0,0,0,3.46-.456,7.9,7.9,0,0,0,2.471-1.217,5.37,5.37,0,0,0,1.483-1.863,5.3,5.3,0,0,0,.494-2.319,4.61,4.61,0,0,0-.38-2.357" transform="translate(-129.037 -15.494)"/><rect class="b" width="4.753" height="19.011" transform="translate(36.426 9.506)"/><path class="b" d="M120.8,25v4.753h4.753V44.011h4.753V29.753h4.753V25Z" transform="translate(-74.869 -15.494)"/><text class="c" transform="translate(48 53)"><tspan x="-31.488" y="0">CARREIRAS</tspan></text></svg>